<?xml version="1.0" standalone="no"?><!-- Generator: Gravit.io --><svg xmlns="http://www.w3.org/2000/svg" xmlns:xlink="http://www.w3.org/1999/xlink" style="isolation:isolate" viewBox="0 0 1451.854 292.158" width="1451.854" height="292.158"><defs><clipPath id="_clipPath_5pUfXKKLHdA2eDbcPmvxTvFY5SvKsttz"><rect width="1451.854" height="292.158"/></clipPath></defs><g clip-path="url(#_clipPath_5pUfXKKLHdA2eDbcPmvxTvFY5SvKsttz)"><g style="isolation:isolate"><path d=" M 1297.798 247.561 C 1358.401 247.561 1403.854 202.117 1403.854 146.08 L 1403.854 145.522 C 1403.854 89.484 1358.962 44.597 1298.36 44.597 C 1237.757 44.597 1192.305 90.04 1192.305 146.08 L 1192.305 146.637 C 1192.305 202.675 1237.196 247.561 1297.798 247.561 Z  M 1298.36 198.771 C 1268.62 198.771 1248.138 174.237 1248.138 146.08 L 1248.138 145.522 C 1248.138 117.363 1268.058 93.386 1297.798 93.386 C 1327.82 93.386 1348.301 117.92 1348.301 146.08 L 1348.301 146.637 C 1348.301 174.795 1328.38 198.771 1298.36 198.771 Z " fill-rule="evenodd" fill="rgb(0,0,0)"/><clipPath id="_clipPath_NQNZodOdtFkmFAyeWq4NQ2PGkznW5O8C"><path d=" M 1297.798 247.561 C 1358.401 247.561 1403.854 202.117 1403.854 146.08 L 1403.854 145.522 C 1403.854 89.484 1358.962 44.597 1298.36 44.597 C 1237.757 44.597 1192.305 90.04 1192.305 146.08 L 1192.305 146.637 C 1192.305 202.675 1237.196 247.561 1297.798 247.561 Z  M 1298.36 198.771 C 1268.62 198.771 1248.138 174.237 1248.138 146.08 L 1248.138 145.522 C 1248.138 117.363 1268.058 93.386 1297.798 93.386 C 1327.82 93.386 1348.301 117.92 1348.301 146.08 L 1348.301 146.637 C 1348.301 174.795 1328.38 198.771 1298.36 198.771 Z " fill-rule="evenodd" fill="rgb(0,0,0)"/></clipPath><g clip-path="url(#_clipPath_NQNZodOdtFkmFAyeWq4NQ2PGkznW5O8C)"><g><path d=" M 1234.557 250.6 L 1290.088 195.091 L 1345.618 250.6 L 1290.088 306.108 L 1234.557 250.6 Z " fill="rgb(142,24,0)"/><path d=" M 1290.088 195.092 L 1345.618 139.582 L 1401.149 195.092 L 1345.618 250.599 L 1290.088 195.092 Z " fill="rgb(188,138,1)"/><path d=" M 1345.618 139.583 L 1401.149 84.074 L 1456.679 139.583 L 1401.149 195.092 L 1345.618 139.583 Z " fill="rgb(0,149,94)"/><path d=" M 1234.557 250.6 L 1290.088 195.091 L 1290.088 306.108 L 1234.557 250.6 Z " fill="rgb(110,22,6)"/><path d=" M 1290.088 195.092 L 1345.618 139.582 L 1345.618 250.599 L 1290.088 195.092 Z " fill="rgb(178,128,1)"/><path d=" M 1345.618 139.582 L 1401.149 84.074 L 1401.149 195.091 L 1345.618 139.582 Z " fill="rgb(1,146,93)"/><path d=" M 1179.027 195.092 L 1234.557 139.582 L 1290.088 195.092 L 1234.557 250.599 L 1179.027 195.092 Z " fill="rgb(85,4,0)"/><path d=" M 1234.557 139.582 L 1290.088 84.074 L 1345.618 139.582 L 1290.088 195.091 L 1234.557 139.582 Z " fill="rgb(83,44,1)"/><path d=" M 1290.088 84.074 L 1345.618 28.565 L 1401.149 84.074 L 1345.618 139.582 L 1290.088 84.074 Z " fill="rgb(1,57,66)"/><path d=" M 1179.027 195.092 L 1234.557 139.582 L 1234.557 250.599 L 1179.027 195.092 Z " fill="rgb(70,4,2)"/><path d=" M 1234.557 139.582 L 1290.088 84.074 L 1290.088 195.091 L 1234.557 139.582 Z " fill="rgb(72,40,7)"/><path d=" M 1290.088 84.074 L 1345.618 28.565 L 1345.618 139.582 L 1290.088 84.074 Z " fill="rgb(5,42,47)"/><path d=" M 1123.497 139.582 L 1179.027 84.074 L 1234.557 139.582 L 1179.027 195.091 L 1123.497 139.582 Z " fill="rgb(123,13,0)"/><path d=" M 1179.027 84.074 L 1234.557 28.565 L 1290.088 84.074 L 1234.557 139.582 L 1179.027 84.074 Z " fill="rgb(137,31,5)"/><path d=" M 1179.027 84.074 L 1234.557 28.565 L 1234.557 139.582 L 1179.027 84.074 Z " fill="rgb(127,30,7)"/><path d=" M 1234.557 28.565 L 1290.088 -26.943 L 1345.618 28.565 L 1290.088 84.074 L 1234.557 28.565 Z " fill="rgb(90,32,6)"/><path d=" M 1234.557 28.565 L 1290.088 -26.943 L 1290.088 84.074 L 1234.557 28.565 Z " fill="rgb(81,27,3)"/></g></g><path d=" M 1087.31 130.717 L 1087.31 95.895 L 1028.39 95.895 L 1028.39 49.87 L 1200.5 48.5 L 1087.31 130.717 Z  M 1141.74 162.57 L 1141.74 243.657 L 1087.31 243.657 L 1087.31 201.434 L 1141.74 162.57 Z " fill-rule="evenodd" fill="rgb(0,0,0)"/><path d=" M 131.547 63.252 L 131.547 245.027 L 116.957 245.027 L 116.957 63.252 L 48.5 63.252 L 48.5 49.87 L 200.006 49.87 L 200.006 63.252 L 131.547 63.252 Z  M 407.92 147.448 C 407.92 200.698 368.361 248.373 308.88 248.373 C 249.4 248.373 210.401 201.256 210.401 148.006 L 210.401 147.448 C 210.401 94.197 249.96 46.524 309.441 46.524 C 368.921 46.524 407.92 93.64 407.92 146.89 C 408.201 147.17 408.201 147.17 407.92 147.448 Z  M 392.77 147.448 C 392.77 99.216 357.418 59.627 308.88 59.627 C 260.342 59.627 225.551 98.659 225.551 146.89 L 225.551 147.448 C 225.551 195.681 260.904 235.269 309.441 235.269 C 357.98 235.269 392.77 196.238 392.77 148.006 L 392.77 147.448 Z  M 512.591 248.094 C 465.455 248.094 432.068 218.542 432.068 163.897 L 432.068 49.87 L 446.658 49.87 L 446.658 162.503 C 446.658 208.505 471.629 234.991 513.153 234.991 C 552.993 234.991 578.524 211.014 578.524 163.897 L 578.524 49.87 L 593.114 49.87 L 593.114 162.225 C 593.114 218.262 560.287 248.094 512.591 248.094 Z  M 720.79 59.627 C 673.655 59.627 638.023 97.823 638.023 146.89 L 638.023 147.448 C 638.023 196.796 674.215 235.269 721.071 235.269 C 749.408 235.269 768.767 224.397 788.687 204.88 L 798.507 214.36 C 777.746 234.711 755.3 248.373 720.51 248.373 C 664.396 248.373 622.872 204.044 622.872 148.006 L 622.872 147.448 C 622.872 92.246 664.396 46.524 721.071 46.524 C 756.141 46.524 777.184 59.349 797.385 77.749 L 787.005 88.343 C 769.89 71.894 750.249 59.627 720.79 59.627 Z  M 973.318 245.027 L 973.318 153.582 L 847.624 153.582 L 847.624 245.027 L 833.035 245.027 L 833.035 49.87 L 847.624 49.87 L 847.624 140.2 L 973.318 140.2 L 973.318 49.87 L 987.907 49.87 L 987.907 245.027 L 973.318 245.027 Z " fill-rule="evenodd" fill="rgb(0,0,0)"/></g></g></svg>